<?xml version="1.0" standalone="no"?>
<!DOCTYPE svg PUBLIC "-//W3C//DTD SVG 20010904//EN"
 "http://www.w3.org/TR/2001/REC-SVG-20010904/DTD/svg10.dtd">
<svg version="1.0" xmlns="http://www.w3.org/2000/svg"
 width="192.000000pt" height="192.000000pt" viewBox="0 0 192.000000 192.000000"
 preserveAspectRatio="xMidYMid meet">
<metadata>
Created by potrace 1.11, written by Peter Selinger 2001-2013
</metadata>
<g transform="translate(0.000000,192.000000) scale(0.100000,-0.100000)"
fill="#000000" stroke="none">
<path d="M880 1781 c-9 -14 -18 -17 -26 -10 -8 6 -15 4 -24 -6 -7 -8 -16 -12
-21 -9 -5 3 -9 0 -9 -5 0 -6 -7 -11 -15 -11 -32 0 8 -26 44 -29 19 -1 38 -6
41 -10 3 -4 12 -8 20 -9 43 -3 72 -11 88 -24 9 -9 28 -14 41 -12 16 3 29 -3
38 -16 8 -11 19 -18 24 -15 5 4 9 2 9 -3 0 -5 14 -15 30 -22 17 -7 30 -16 30
-21 0 -5 7 -9 16 -9 16 0 76 -38 82 -52 2 -5 8 -6 13 -2 5 3 12 -2 15 -10 3
-9 12 -16 20 -16 8 0 14 -4 14 -10 0 -16 42 -60 52 -54 8 5 12 -10 9 -30 -1
-5 5 -6 13 -3 9 4 17 -1 21 -14 4 -10 11 -19 16 -19 5 0 9 -6 9 -14 0 -8 17
-33 38 -56 20 -23 42 -56 48 -73 7 -18 16 -31 22 -30 6 2 9 -3 6 -10 -2 -7 4
-24 16 -37 15 -17 17 -26 9 -37 -8 -9 -8 -13 -1 -13 7 0 9 -7 5 -17 -4 -10 -2
-14 4 -10 14 9 28 -20 31 -66 1 -12 6 -15 15 -11 7 5 6 0 -3 -11 -11 -14 -12
-19 -2 -22 7 -3 12 -22 12 -45 0 -21 6 -46 14 -53 10 -10 13 -35 12 -80 -2
-41 1 -65 8 -65 7 0 8 -3 1 -8 -13 -9 -14 -115 0 -124 6 -5 6 -8 -2 -8 -11 0
-12 -24 -1 -35 8 -8 76 62 84 88 4 11 12 26 18 33 8 7 12 44 11 101 0 73 -4
94 -19 109 -10 10 -14 20 -8 22 6 2 7 16 2 37 -4 19 -5 35 -1 35 3 0 -1 5 -9
10 -10 6 -11 10 -3 10 13 0 14 20 2 30 -13 11 -38 73 -33 81 3 5 1 9 -3 9 -5
0 -9 9 -10 20 -1 11 -9 27 -17 35 -8 9 -12 23 -9 32 5 12 3 14 -7 8 -10 -6
-12 -4 -7 9 6 16 2 24 -30 61 -7 7 -13 21 -13 29 0 9 -4 16 -9 16 -5 0 -14 14
-21 30 -7 17 -16 30 -21 30 -4 0 -11 9 -14 20 -4 11 -11 18 -16 15 -5 -4 -10
-1 -10 4 -1 6 -2 15 -3 19 0 5 -9 16 -18 26 -10 10 -18 22 -18 27 0 5 -6 9
-14 9 -8 0 -17 7 -20 16 -3 8 -11 12 -17 8 -8 -4 -9 -3 -5 4 4 7 3 12 -2 12
-5 0 -15 11 -22 25 -7 14 -19 25 -26 25 -7 0 -17 6 -21 14 -4 7 -19 19 -33 26
-14 7 -42 26 -62 42 -21 17 -43 26 -49 22 -8 -4 -9 -3 -5 5 7 11 -32 33 -46
24 -5 -2 -8 0 -8 6 0 10 -29 23 -42 18 -4 -1 -14 8 -23 20 -9 13 -22 19 -34
16 -10 -3 -21 2 -24 10 -4 10 -24 15 -69 16 -53 1 -66 -2 -78 -18z"/>
<path d="M1326 1792 c-6 -11 30 -52 46 -52 7 0 26 -14 41 -31 15 -17 27 -28
27 -24 0 4 37 -30 83 -75 45 -45 81 -84 79 -87 -2 -2 9 -16 25 -31 15 -14 27
-30 25 -34 -1 -4 2 -8 8 -8 5 0 10 -7 10 -16 0 -8 5 -12 10 -9 6 3 10 1 10 -5
0 -6 9 -20 20 -32 11 -12 20 -28 20 -35 0 -8 4 -12 8 -9 5 3 8 -7 7 -22 0 -16
7 -34 19 -44 12 -10 17 -17 12 -18 -6 0 -1 -7 10 -16 10 -8 12 -13 4 -9 -10 4
-9 2 2 -8 10 -8 19 -25 20 -38 2 -13 6 -26 9 -29 4 -3 9 -18 10 -35 2 -16 12
-39 22 -49 9 -11 17 -25 17 -32 0 -15 23 -25 37 -16 16 11 17 212 1 212 -10 0
-10 2 0 8 16 11 12 62 -6 62 -7 0 -12 8 -10 18 2 11 -4 27 -12 36 -17 21 -23
49 -8 40 5 -3 3 8 -6 24 -9 17 -20 34 -26 37 -5 3 -10 13 -10 21 0 15 -12 34
-42 61 -9 9 -14 21 -11 26 4 6 1 7 -6 3 -8 -5 -14 0 -18 14 -4 16 -8 18 -14 8
-7 -10 -9 -10 -9 2 0 8 -14 26 -31 40 -17 14 -37 31 -45 38 -8 7 -18 10 -24 7
-5 -3 -10 1 -10 9 0 9 -9 16 -20 16 -11 0 -23 7 -27 16 -3 8 -12 13 -19 10 -8
-3 -14 -2 -14 3 0 5 -11 7 -25 6 -16 -2 -25 2 -25 11 0 8 -10 14 -24 14 -30 0
-57 10 -52 19 2 3 -16 7 -40 8 -24 1 -45 -1 -48 -5z"/>
<path d="M530 1600 c0 -6 -7 -10 -15 -10 -8 0 -15 -6 -15 -14 0 -9 -7 -12 -20
-9 -12 3 -20 0 -20 -6 0 -7 -4 -9 -10 -6 -5 3 -10 1 -10 -5 0 -6 -4 -9 -9 -6
-5 4 -12 0 -14 -6 -4 -10 -6 -10 -6 -1 -1 7 -8 10 -16 7 -8 -4 -13 -10 -10
-14 3 -5 -8 -17 -25 -26 -16 -10 -30 -22 -30 -27 0 -4 -5 -5 -11 -1 -6 3 -4
-5 6 -19 15 -23 45 -28 45 -7 0 4 20 7 45 5 24 -1 42 2 39 6 -2 4 1 11 6 14
17 11 60 13 54 4 -3 -5 0 -9 5 -9 6 0 11 4 11 8 0 4 9 8 20 8 11 0 20 -4 20
-9 0 -4 4 -5 10 -2 19 11 50 14 50 4 0 -6 6 -7 12 -3 24 15 120 8 130 -9 5 -9
15 -14 23 -10 8 3 26 -2 39 -10 17 -11 26 -13 34 -5 8 8 13 7 17 -4 4 -9 14
-14 24 -11 10 2 24 -2 32 -10 8 -7 27 -17 42 -21 15 -3 25 -11 22 -16 -3 -6 3
-10 14 -10 11 0 24 -7 29 -16 5 -9 12 -15 15 -15 21 3 27 -1 27 -16 0 -9 2
-14 5 -11 6 6 46 -25 74 -56 9 -10 23 -27 33 -37 9 -9 14 -20 11 -23 -6 -6 12
-10 30 -7 4 0 6 -2 6 -6 -4 -22 2 -44 10 -39 8 5 18 -14 35 -67 3 -11 11 -15
17 -11 8 4 9 3 5 -4 -4 -7 -3 -12 3 -12 5 0 8 -9 6 -20 -2 -11 2 -25 8 -32 25
-27 42 -52 30 -44 -9 5 -11 2 -7 -8 3 -9 9 -14 13 -12 4 3 6 -8 5 -24 -1 -16
5 -39 14 -52 20 -27 24 -48 11 -48 -6 0 -7 -6 -3 -12 5 -7 8 -30 7 -50 -1 -21
2 -36 6 -33 4 2 5 -15 1 -39 -4 -24 -5 -51 -4 -60 1 -9 -2 -16 -7 -16 -6 0 -5
-8 1 -20 8 -15 6 -23 -8 -37 -13 -12 -19 -35 -21 -73 -1 -30 -7 -57 -12 -58
-5 -2 -7 -8 -3 -13 3 -5 1 -9 -5 -9 -5 0 -8 -11 -5 -25 3 -17 0 -25 -9 -25 -8
0 -14 -7 -15 -15 -1 -8 -3 -22 -4 -30 -1 -8 -5 -15 -10 -15 -17 0 -26 -44 -12
-53 14 -8 80 24 95 45 3 5 10 8 15 6 13 -4 56 41 49 52 -4 6 -1 10 5 10 6 0 9
4 5 9 -3 6 1 13 8 18 20 11 26 34 16 61 -6 15 -5 21 1 17 7 -4 9 4 5 24 -4 21
0 33 11 39 9 5 14 15 12 23 -3 8 -1 22 3 31 5 9 6 19 1 21 -6 4 -8 122 -2 122
1 0 3 12 4 28 1 15 -2 27 -6 27 -7 0 -3 34 7 50 3 6 2 10 -3 10 -5 0 -9 10 -8
23 1 13 -4 21 -11 20 -7 -2 -13 4 -13 13 0 8 4 12 10 9 6 -3 7 1 4 9 -3 9 -11
13 -17 9 -6 -4 -7 -1 -1 8 13 22 4 72 -17 92 -15 14 -17 22 -9 37 6 11 7 20 2
20 -5 0 -17 16 -28 35 -10 19 -22 35 -26 35 -5 0 -7 3 -7 8 3 20 -3 32 -17 32
-10 0 -14 6 -10 15 3 8 -1 21 -9 29 -8 8 -15 17 -15 20 0 13 -45 56 -57 56 -8
0 -11 5 -8 10 3 6 1 10 -4 10 -6 0 -11 7 -11 15 0 8 -3 14 -7 13 -10 -3 -79
64 -76 73 1 4 -11 10 -27 14 -17 4 -30 13 -30 20 0 8 -6 12 -14 9 -8 -3 -21 5
-30 17 -8 13 -18 20 -22 16 -3 -3 -15 3 -26 13 -11 10 -29 17 -39 15 -10 -2
-22 1 -25 7 -5 7 -2 8 6 3 9 -5 11 -4 6 4 -4 6 -11 9 -16 6 -10 -6 -60 15 -60
25 0 13 -39 18 -44 6 -3 -7 -5 -6 -5 3 -1 10 -4 11 -15 2 -9 -8 -16 -8 -20 -2
-4 6 -14 7 -22 4 -9 -3 -21 3 -30 16 -12 17 -19 19 -35 11 -13 -8 -19 -7 -19
0 0 8 -6 8 -20 0 -14 -8 -20 -8 -20 0 0 7 -7 7 -21 -1 -12 -6 -24 -7 -28 -3
-7 11 -37 12 -46 2 -4 -4 -18 -3 -31 2 -15 6 -24 6 -24 0z"/>
<path d="M612 1358 c-7 -7 -42 -13 -79 -14 -38 -2 -86 -9 -108 -17 -22 -7 -47
-13 -55 -12 -8 0 -21 -7 -28 -17 -8 -12 -22 -17 -37 -14 -13 3 -29 -2 -36 -10
-6 -8 -16 -14 -21 -14 -5 0 -16 -7 -25 -15 -8 -8 -19 -13 -24 -10 -5 4 -9 1
-9 -4 0 -6 -3 -10 -8 -9 -4 1 -20 -5 -37 -15 -16 -9 -26 -16 -21 -17 5 0 -7
-16 -27 -35 -21 -20 -37 -40 -37 -45 0 -21 -2 -25 -15 -40 -8 -8 -16 -28 -19
-44 -3 -16 -9 -32 -13 -35 -13 -10 -15 -51 -3 -51 13 0 76 62 72 73 -1 4 1 7
5 8 31 3 47 13 87 52 25 25 48 42 51 36 8 -11 35 14 35 33 0 10 3 9 10 -2 6
-10 10 -11 10 -2 0 6 7 12 15 12 8 0 15 5 15 10 0 6 13 10 29 10 16 0 31 5 33
12 3 7 20 13 39 14 50 3 51 3 44 14 -7 12 -6 12 67 15 32 1 64 7 72 14 9 8 16
8 20 2 4 -5 14 -10 24 -11 74 -3 94 -7 109 -20 10 -9 33 -15 51 -14 19 1 43
-7 57 -18 14 -11 25 -16 25 -11 0 4 5 0 11 -10 6 -9 14 -15 20 -12 5 4 9 1 9
-4 0 -6 4 -10 9 -8 10 2 51 -41 51 -55 0 -4 7 -8 16 -8 8 0 12 -4 9 -10 -3 -5
-1 -10 6 -10 13 0 49 -38 49 -52 0 -5 12 -25 27 -44 14 -19 27 -46 27 -58 1
-13 8 -32 16 -41 20 -24 23 -325 3 -332 -7 -3 -10 -9 -7 -14 3 -5 1 -9 -5 -9
-10 0 -7 -31 5 -53 4 -6 4 -9 -1 -5 -9 8 -42 -31 -37 -44 1 -5 -3 -8 -8 -8 -6
0 -10 -11 -10 -25 0 -14 -4 -25 -9 -25 -8 0 -22 -32 -25 -55 -1 -5 -11 -19
-23 -31 -13 -12 -20 -23 -18 -26 7 -7 -86 -99 -95 -93 -3 2 -7 -2 -7 -10 0
-12 16 -15 75 -15 66 0 77 3 97 24 13 14 25 22 28 20 3 -3 10 4 17 15 6 12 8
21 4 21 -3 0 -1 6 5 13 6 8 7 17 3 21 -4 4 0 6 8 4 9 -2 16 6 18 20 2 12 8 22
13 22 5 0 9 5 9 11 0 6 10 25 22 42 12 17 16 27 7 22 -11 -7 -12 -6 -2 7 7 8
10 18 5 22 -4 4 1 12 11 17 9 6 17 21 17 34 0 14 4 25 10 25 6 0 6 9 0 26 -7
16 -7 23 0 19 6 -3 10 2 10 12 0 11 5 24 12 31 8 8 8 12 1 12 -7 0 -8 12 -3
35 4 19 5 35 2 35 -3 0 3 7 14 16 10 8 12 12 4 8 -12 -6 -13 -5 -3 7 10 12 10
18 1 27 -8 8 -9 12 -1 12 6 0 10 11 9 24 0 13 -4 22 -8 20 -10 -7 -21 42 -15
66 3 11 1 22 -4 25 -4 3 -6 12 -3 20 4 8 0 17 -8 20 -7 3 -14 19 -14 36 -1 17
-6 34 -12 38 -6 4 -13 18 -15 31 -7 35 -29 80 -39 80 -5 0 -6 5 -3 10 3 6 1
10 -4 10 -6 0 -11 9 -11 20 0 11 -4 20 -9 20 -5 0 -22 17 -38 39 -15 21 -32
38 -36 37 -5 -1 -15 10 -22 24 -8 14 -14 21 -15 16 0 -5 -7 -3 -15 4 -8 7 -12
17 -8 23 3 6 1 7 -5 3 -7 -4 -12 -2 -12 3 0 6 -7 11 -15 11 -8 0 -15 4 -15 9
0 4 -10 8 -22 7 -13 0 -22 4 -21 10 1 5 -12 15 -28 21 -16 6 -27 8 -24 3 3 -5
-8 -2 -25 7 -17 8 -48 15 -68 15 -20 0 -48 6 -61 15 -17 11 -21 12 -15 2 6
-12 5 -12 -9 0 -14 11 -17 11 -17 0 0 -12 -2 -12 -9 0 -7 11 -9 11 -14 0 -4
-11 -7 -11 -14 -2 -7 10 -12 10 -21 1z"/>
<path d="M547 1099 c-12 -11 -31 -16 -50 -15 -37 3 -59 -3 -52 -14 3 -5 0 -12
-6 -16 -8 -4 -9 -3 -5 4 4 7 2 12 -3 12 -6 0 -11 -6 -11 -12 0 -9 -4 -8 -10 2
-7 11 -10 11 -10 2 0 -7 -4 -11 -9 -7 -5 3 -16 -3 -23 -12 -7 -10 -19 -18 -25
-19 -29 -2 -34 -4 -29 -12 3 -5 -11 -14 -30 -21 -19 -7 -32 -16 -30 -20 3 -4
-18 -19 -45 -34 -27 -16 -49 -30 -49 -33 0 -3 6 -2 13 2 6 4 -15 -18 -48 -49
-33 -31 -57 -57 -52 -57 4 0 -11 -17 -34 -37 l-40 -36 2 -108 c2 -91 5 -106
18 -104 9 2 18 4 21 4 3 1 11 10 18 22 8 12 9 18 3 15 -7 -4 -8 -1 -5 8 3 9
10 16 15 16 5 0 8 3 8 7 -3 21 2 33 16 33 14 0 19 11 16 37 -1 7 10 20 25 29
14 10 30 28 35 41 5 13 13 22 18 18 5 -3 12 4 16 15 3 11 15 25 26 31 11 5 17
14 14 20 -4 5 -2 9 4 9 6 0 21 11 35 25 14 14 30 25 36 25 5 0 10 5 10 10 0 6
6 10 14 10 8 0 27 10 43 23 35 29 63 40 63 25 0 -6 11 -1 24 11 13 12 27 21
32 20 29 -5 84 2 79 11 -8 13 1 13 27 -1 18 -10 20 -9 14 7 -6 16 -5 16 11 3
10 -8 29 -20 42 -27 19 -11 22 -11 16 0 -3 7 0 5 8 -5 9 -10 18 -18 21 -18 3
1 7 1 9 0 1 0 9 -2 18 -4 10 -1 26 -12 38 -24 12 -12 26 -21 31 -21 6 0 10 -6
10 -14 0 -8 7 -16 15 -20 17 -6 35 -46 41 -90 2 -16 11 -34 21 -41 15 -11 15
-13 -3 -23 -12 -7 -14 -12 -5 -12 9 0 11 -7 6 -22 -3 -13 -7 -29 -7 -35 -1 -7
-5 -13 -9 -13 -4 0 -6 -9 -4 -20 5 -25 -4 -52 -15 -45 -4 2 -6 -6 -5 -20 2
-13 -5 -34 -16 -46 -10 -12 -19 -30 -19 -41 0 -10 -5 -18 -11 -18 -8 0 -7 -5
1 -16 8 -8 9 -14 4 -13 -21 4 -35 -2 -29 -11 3 -5 -1 -10 -9 -10 -8 0 -13 -6
-11 -12 3 -7 -11 -26 -30 -42 -19 -16 -35 -35 -35 -42 0 -6 -7 -15 -16 -18 -8
-3 -13 -10 -9 -15 6 -11 -29 -34 -38 -25 -3 3 -10 -4 -17 -15 -6 -12 -15 -19
-21 -16 -5 4 -9 1 -9 -5 0 -6 -4 -8 -10 -5 -5 3 -15 -4 -21 -17 -6 -13 -20
-25 -31 -25 -12 -1 -25 -8 -29 -15 -7 -10 14 -14 97 -16 105 -3 105 -2 145 29
21 17 37 35 34 40 -4 5 2 6 11 2 12 -4 15 -3 10 5 -4 7 -3 12 3 12 6 0 13 11
17 25 3 14 12 25 20 25 8 0 14 6 14 14 0 8 7 16 15 20 8 3 15 15 15 26 0 12 5
18 10 15 6 -3 10 0 10 8 0 8 9 22 19 31 11 10 17 24 15 31 -3 7 2 15 10 18 9
4 13 13 10 22 -3 8 -1 15 5 15 6 0 8 7 5 15 -4 8 -1 15 6 15 6 0 9 4 6 9 -4 5
0 12 6 14 10 4 10 6 1 6 -7 1 -10 8 -7 16 4 8 10 13 14 10 4 -2 6 9 4 25 -2
19 2 34 14 42 16 13 26 48 13 48 -3 0 -5 20 -3 45 2 25 1 53 -4 63 -4 9 -6 20
-6 25 1 4 -3 7 -9 7 -6 0 -9 9 -6 20 3 11 2 18 -3 15 -4 -3 -11 2 -14 11 -3 8
-2 13 2 10 5 -3 9 1 9 9 0 8 -4 12 -8 9 -4 -2 -10 9 -14 25 -3 16 -13 32 -22
35 -8 4 -13 12 -10 20 5 12 -41 56 -59 56 -3 0 -23 13 -43 29 -20 15 -44 27
-54 25 -10 -1 -14 2 -10 9 4 6 0 8 -10 4 -11 -4 -17 -1 -17 7 0 8 -10 13 -22
12 -13 -1 -28 2 -35 6 -18 14 -74 28 -68 17 4 -5 2 -9 -4 -9 -5 0 -13 5 -17
11 -4 8 -9 7 -15 -2 -6 -10 -11 -11 -16 -3 -6 8 -14 6 -26 -7z"/>
<path d="M541 849 c-10 -4 -22 -12 -25 -18 -4 -5 -15 -8 -26 -6 -12 2 -18 0
-15 -5 3 -5 -5 -12 -19 -16 -13 -3 -27 -12 -30 -20 -3 -8 -13 -14 -22 -14 -9
0 -39 -23 -65 -51 -27 -29 -49 -48 -49 -43 -1 5 -7 -2 -14 -16 -8 -14 -13 -28
-13 -32 1 -4 -7 -14 -18 -22 -11 -9 -16 -16 -11 -16 6 0 1 -6 -10 -14 -10 -8
-20 -19 -20 -25 -1 -6 -2 -16 -3 -22 0 -5 -5 -8 -10 -5 -11 7 -21 -17 -21 -50
0 -13 -5 -24 -11 -24 -5 0 -7 -4 -4 -10 3 -5 2 -10 -2 -10 -11 0 -11 -100 0
-117 4 -6 1 -14 -5 -16 -8 -3 -6 -6 5 -6 9 -1 16 -4 16 -8 -3 -21 3 -33 17
-33 8 0 12 -4 9 -10 -3 -5 0 -10 8 -10 8 0 21 -8 30 -18 22 -24 123 -24 141
-1 6 9 19 15 30 13 21 -3 66 15 66 28 0 4 7 8 15 8 19 0 31 9 111 88 35 35 64
70 64 78 0 9 4 13 9 9 5 -3 12 4 16 15 4 11 11 18 16 15 5 -3 6 2 2 11 -4 12
-3 15 6 10 8 -5 12 -3 11 5 -3 23 12 59 21 53 5 -3 6 2 3 11 -4 8 0 25 8 38
21 32 28 67 15 67 -8 0 -9 3 -1 8 16 10 10 58 -10 77 -9 10 -15 22 -13 29 2 6
-3 17 -12 24 -10 8 -10 11 -2 6 10 -5 12 -3 6 5 -4 7 -16 11 -26 8 -11 -3 -17
-2 -14 3 16 26 -102 48 -154 29z m79 -126 c0 -8 4 -12 9 -8 6 3 15 -4 22 -17
9 -16 9 -23 0 -26 -6 -2 -9 -8 -5 -13 3 -5 0 -9 -5 -9 -6 0 -11 -11 -11 -24 0
-14 -5 -28 -10 -31 -6 -4 -8 -11 -5 -16 4 -5 1 -9 -4 -9 -6 0 -11 -5 -11 -11
0 -7 -7 -17 -15 -23 -9 -6 -17 -21 -18 -33 0 -12 -4 -21 -7 -21 -19 2 -30 -3
-26 -11 3 -5 -1 -12 -10 -15 -8 -3 -12 -10 -9 -16 3 -5 2 -10 -2 -10 -9 0 -62
-40 -95 -72 -10 -10 -18 -16 -18 -13 0 3 -12 -2 -26 -12 -28 -18 -84 -25 -84
-11 0 4 -6 8 -12 8 -8 0 -14 16 -15 40 -1 23 2 38 8 35 5 -4 9 -3 10 2 4 47
11 68 29 80 11 8 18 18 15 23 -3 4 -1 10 4 12 5 1 11 10 13 17 5 24 109 120
123 115 7 -3 16 4 20 15 3 12 15 21 26 21 11 0 22 6 25 14 3 8 12 12 20 9 8
-3 14 0 14 7 0 6 5 8 10 5 6 -3 10 -2 10 3 0 5 7 9 15 9 8 0 15 -7 15 -14z"/>
</g>
</svg>
